<svg version="1.1" xmlns="http://www.w3.org/2000/svg" xmlns:xlink="http://www.w3.org/1999/xlink" width="900" height="600" style="width: 900px; height: 600px;"><defs/><g><g/><g transform="scale(1,1) translate(0.5,0.5)"><rect fill="#FFFFFF" stroke="none" x="0" y="0" width="900" height="600"/><rect fill="#ffffff" stroke="none" x="0" y="0" width="900" height="600"/><rect fill="#FFFFFF" stroke="none" x="68.29406250000001" y="31" width="801.7059375" height="519.2625"/><rect fill="#E8DDCB" stroke="none" x="68.29406250000001" y="31" width="801.7059375" height="519.2625"/><g><rect fill="none" stroke="#e5e5e5" x="68.29406250000001" y="31" width="801.7059375" height="519.2625" stroke-miterlimit="10"/></g><g><g><path fill="none" stroke="#e5e5e5" paint-order="fill stroke markers" d=" M 105 550 L 105 31" stroke-miterlimit="10"/><path fill="none" stroke="#e5e5e5" paint-order="fill stroke markers" d=" M 250 550 L 250 31" stroke-miterlimit="10"/><path fill="none" stroke="#e5e5e5" paint-order="fill stroke markers" d=" M 396 550 L 396 31" stroke-miterlimit="10"/><path fill="none" stroke="#e5e5e5" paint-order="fill stroke markers" d=" M 542 550 L 542 31" stroke-miterlimit="10"/><path fill="none" stroke="#e5e5e5" paint-order="fill stroke markers" d=" M 688 550 L 688 31" stroke-miterlimit="10"/><path fill="none" stroke="#e5e5e5" paint-order="fill stroke markers" d=" M 834 550 L 834 31" stroke-miterlimit="10"/></g><g><path fill="none" stroke="#e5e5e5" paint-order="fill stroke markers" d=" M 68 537 L 870 537" stroke-miterlimit="10"/><path fill="none" stroke="#e5e5e5" paint-order="fill stroke markers" d=" M 68 449 L 870 449" stroke-miterlimit="10"/><path fill="none" stroke="#e5e5e5" paint-order="fill stroke markers" d=" M 68 360 L 870 360" stroke-miterlimit="10"/><path fill="none" stroke="#e5e5e5" paint-order="fill stroke markers" d=" M 68 272 L 870 272" stroke-miterlimit="10"/><path fill="none" stroke="#e5e5e5" paint-order="fill stroke markers" d=" M 68 183 L 870 183" stroke-miterlimit="10"/><path fill="none" stroke="#e5e5e5" paint-order="fill stroke markers" d=" M 68 94 L 870 94" stroke-miterlimit="10"/></g><g><path fill="none" stroke="none"/><path fill="none" stroke="#F46D43" paint-order="fill stroke markers" d=" M 104.73524147727278 94.45754413269657 L 112.09709581611575 94.45754413269657 L 119.45895015495873 94.45754413269657 L 126.8208044938017 94.45754413269657 L 134.18265883264468 94.45754413269657 L 141.54451317148767 94.45754413269657 L 148.90636751033063 94.45754413269657 L 156.2682218491736 94.45754413269657 L 163.63007618801657 94.45754413269657 L 170.99193052685956 94.45754413269657 L 178.35378486570255 94.45754413269657 L 185.7156392045455 94.45754413269657 L 193.07749354338847 94.45754413269657 L 200.43934788223146 94.45754413269657 L 207.80120222107445 94.45754413269657 L 215.1630565599174 94.45754413269657 L 222.52491089876037 94.45754413269657 L 229.88676523760336 94.45754413269657 L 237.24861957644634 94.45754413269657 L 244.6104739152893 94.45754413269657 L 251.9723282541323 94.45754413269657 L 259.33418259297525 94.45754413269657 L 266.69603693181824 94.45754413269657 L 274.05789127066123 94.45754413269657 L 281.41974560950416 94.45754413269657 L 288.78159994834715 94.45754413269657 L 296.14345428719014 94.45754413269657 L 303.50530862603307 94.45754413269657 L 310.8671629648761 94.45754413269657 L 318.22901730371905 94.45754413269657 L 325.59087164256204 94.45754413269657 L 332.952725981405 94.45754413269657 L 340.31458032024796 94.45754413269657 L 347.676434659091 94.45754413269657 L 355.03828899793393 94.45754413269657 L 362.4001433367769 94.45754413269657 L 369.7619976756199 94.45754413269657 L 377.1238520144629 94.45754413269657 L 384.48570635330583 94.45754413269657 L 391.8475606921488 94.45754413269657 L 399.2094150309918 94.45754413269657 L 406.5712693698348 94.45754413269657 L 413.9331237086778 94.45754413269657 L 421.2949780475207 94.45754413269657 L 428.6568323863637 94.45754413269657 L 436.0186867252067 94.45754413269657 L 443.3805410640497 94.45754413269657 L 450.74239540289267 94.45754413269657 L 458.10424974173554 94.45754413269657 L 465.46610408057853 94.45754413269657 L 472.8279584194215 94.45754413269657 L 480.1898127582645 94.45754413269657 L 487.5516670971075 94.45754413269657 L 494.91352143595043 94.45754413269657 L 502.2753757747934 94.45754413269657 L 509.6372301136364 94.45754413269657 L 516.9990844524793 94.45754413269657 L 524.3609387913224 94.45754413269657 L 531.7227931301653 94.45754413269657 L 539.0846474690084 94.45754413269657 L 546.4465018078513 94.45754413269657 L 553.8083561466942 94.45754413269657 L 561.1702104855373 94.45754413269657 L 568.5320648243802 94.45754413269657 L 575.8939191632232 94.45754413269657 L 583.2557735020662 94.45754413269657 L 590.6176278409091 94.45754413269657 L 597.9794821797522 94.45754413269657 L 605.3413365185951 94.45754413269657 L 612.7031908574381 94.45754413269657 L 620.0650451962811 94.45754413269657 L 627.426899535124 94.45754413269657 L 634.788753873967 94.45754413269657 L 642.15060821281 94.45754413269657 L 649.512462551653 94.45754413269657 L 656.874316890496 94.45754413269657 L 664.2361712293389 94.45754413269657 L 671.5980255681819 94.45754413269657 L 678.9598799070249 94.45754413269657 L 686.3217342458679 94.45754413269657 L 693.6835885847108 94.45754413269657 L 701.0454429235538 94.45754413269657 L 708.4072972623968 94.45754413269657 L 715.7691516012397 94.45754413269657 L 723.1310059400828 94.45754413269657 L 730.4928602789257 94.45754413269657 L 737.8547146177686 94.45754413269657 L 745.2165689566117 94.45754413269657 L 752.5784232954546 94.45754413269657 L 759.9402776342977 94.45754413269657 L 767.3021319731406 94.45754413269657 L 774.6639863119835 94.45754413269657 L 782.0258406508266 94.45754413269657 L 789.3876949896695 94.45754413269657 L 796.7495493285126 94.45754413269657 L 804.1114036673555 94.45754413269657 L 811.4732580061983 94.45754413269657 L 818.8351123450414 94.45754413269657 L 826.1969666838843 94.45754413269657 L 833.5588210227273 94.45754413269657" stroke-miterlimit="10" stroke-width="10"/></g><g><path fill="none" stroke="none"/><path fill="none" stroke="#036564" paint-order="fill stroke markers" d=" M 104.73524147727278 96.22886427596796 L 112.02347727272732 101.54282470578204 L 119.31171306818187 82.05830312979708 L 126.59994886363641 88.70075366706465 L 133.88818465909097 84.71528334470406 L 141.1764204545455 97.55735438342151 L 148.46465625000005 90.02924377451819 L 155.7528920454546 94.45754413269657 L 163.04112784090916 92.24339395360738 L 170.32936363636367 96.67169431178576 L 177.61759943181823 83.38679323725057 L 184.90583522727277 101.54282470578204 L 192.19407102272731 107.74244520723181 L 199.48230681818188 83.38679323725057 L 206.7705426136364 86.48660348797546 L 214.05877840909096 95.78603424015012 L 221.3470142045455 80.28698298652569 L 228.63525000000004 109.956595386321 L 235.92348579545458 90.02924377451819 L 243.21172159090915 82.94396320143267 L 250.4999573863637 105.97112506396047 L 257.7881931818182 101.98565474159989 L 265.07642897727277 96.22886427596796 L 272.36466477272734 100.21433459832849 L 279.65290056818185 107.74244520723181 L 286.9411363636364 103.31414484905343 L 294.229372159091 75.8586826283472 L 301.5176079545455 113.05640563704594 L 308.80584375 98.44301445505715 L 316.0940795454546 94.01471409687878 L 323.38231534090914 105.08546499232477 L 330.67055113636366 91.80056391778959 L 337.9587869318182 89.5864137387004 L 345.2470227272728 106.41395509977826 L 352.5352585227273 96.67169431178576 L 359.8234943181819 110.8422554579567 L 367.1117301136364 82.94396320143267 L 374.39996590909095 112.17074556541024 L 381.6882017045455 90.47207381033604 L 388.97643750000003 81.61547309397918 L 396.2646732954546 87.81509359542906 L 403.5529090909091 107.74244520723181 L 410.8411448863637 88.25792363124685 L 418.12938068181825 95.34320420433232 L 425.41761647727276 80.28698298652569 L 432.7058522727273 100.21433459832849 L 439.99408806818184 94.90037416851442 L 447.2823238636364 90.02924377451819 L 454.5705596590909 99.32867452669285 L 461.8587954545455 68.77340205526173 L 469.14703125000005 101.09999466996425 L 476.43526704545457 79.84415295070778 L 483.72350284090913 91.35773388197168 L 491.01173863636365 98.0001844192393 L 498.2999744318182 108.18527524304966 L 505.5882102272728 109.956595386321 L 512.8764460227274 84.27245330888627 L 520.1646818181819 105.97112506396047 L 527.4529176136364 78.07283280743638 L 534.7411534090909 102.42848477741774 L 542.0293892045455 90.02924377451819 L 549.317625 109.07093531468536 L 556.6058607954546 104.19980492068908 L 563.8940965909092 100.65716463414634 L 571.1823323863637 101.98565474159989 L 578.4705681818182 81.61547309397918 L 585.7588039772727 100.21433459832849 L 593.0470397727273 88.70075366706465 L 600.3352755681818 96.22886427596796 L 607.6235113636365 89.1435837028825 L 614.911747159091 93.57188406106093 L 622.1999829545455 98.885844490875 L 629.48821875 78.51566284325429 L 636.7764545454546 90.47207381033604 L 644.0646903409091 69.65906212689754 L 651.3529261363636 88.25792363124685 L 658.6411619318183 90.02924377451819 L 665.9293977272728 84.71528334470406 L 673.2176335227273 86.48660348797546 L 680.5058693181818 92.24339395360738 L 687.7941051136364 119.69885617431356 L 695.0823409090909 85.15811338052185 L 702.3705767045454 97.11452434760366 L 709.6588125000001 97.11452434760366 L 716.9470482954546 94.45754413269657 L 724.2352840909091 84.71528334470406 L 731.5235198863637 108.62810527886751 L 738.8117556818182 90.91490384615383 L 746.0999914772727 86.04377345215767 L 753.3882272727272 99.7715045625107 L 760.6764630681819 118.81319610267786 L 767.9646988636364 101.09999466996425 L 775.2529346590909 54.6028409090909 L 782.5411704545455 97.11452434760366 L 789.82940625 79.40132291488999 L 797.1176420454545 119.69885617431356 L 804.405877840909 105.52829502814262 L 811.6941136363637 110.3994254221389 L 818.9823494318182 94.45754413269657 L 826.2705852272727 94.90037416851442 L 833.5588210227273 526.6596590909091" stroke-miterlimit="10" stroke-width="4"/></g></g><g><g/><g><path fill="darkgrey" stroke="#e5e5e5" paint-order="fill stroke markers" d=" M 753.703125 259.13125 L 860 259.13125 L 860 322.13125 L 753.703125 322.13125 L 753.703125 259.13125 Z" fill-opacity="0.95" stroke-miterlimit="10" stroke-opacity="0.5"/><text fill="#444444" stroke="none" font-family="helvetica" font-size="10pt" font-style="normal" font-weight="normal" text-decoration="normal" x="788.703125" y="279.13125" text-anchor="start" dominant-baseline="central">Expected</text><g><path fill="none" stroke="#F46D43" paint-order="fill stroke markers" d=" M 763.703125 279.13125 L 783.703125 279.13125" stroke-miterlimit="10" stroke-width="10"/></g><text fill="#444444" stroke="none" font-family="helvetica" font-size="10pt" font-style="normal" font-weight="normal" text-decoration="normal" x="788.703125" y="302.13125" text-anchor="start" dominant-baseline="central">Result</text><g><path fill="none" stroke="#036564" paint-order="fill stroke markers" d=" M 763.703125 302.13125 L 783.703125 302.13125" stroke-miterlimit="10" stroke-width="4"/></g></g></g><g><g><path fill="none" stroke="black" paint-order="fill stroke markers" d=" M 68 550 L 870 550" stroke-miterlimit="10"/><path fill="none" stroke="black" paint-order="fill stroke markers" d=" M 105 556 L 105 548" stroke-miterlimit="10"/><path fill="none" stroke="black" paint-order="fill stroke markers" d=" M 250 556 L 250 548" stroke-miterlimit="10"/><path fill="none" stroke="black" paint-order="fill stroke markers" d=" M 396 556 L 396 548" stroke-miterlimit="10"/><path fill="none" stroke="black" paint-order="fill stroke markers" d=" M 542 556 L 542 548" stroke-miterlimit="10"/><path fill="none" stroke="black" paint-order="fill stroke markers" d=" M 688 556 L 688 548" stroke-miterlimit="10"/><path fill="none" stroke="black" paint-order="fill stroke markers" d=" M 834 556 L 834 548" stroke-miterlimit="10"/><path fill="none" stroke="black" paint-order="fill stroke markers" d=" M 76 554 L 76 550" stroke-miterlimit="10"/><path fill="none" stroke="black" paint-order="fill stroke markers" d=" M 105 554 L 105 550" stroke-miterlimit="10"/><path fill="none" stroke="black" paint-order="fill stroke markers" d=" M 134 554 L 134 550" stroke-miterlimit="10"/><path fill="none" stroke="black" paint-order="fill stroke markers" d=" M 163 554 L 163 550" stroke-miterlimit="10"/><path fill="none" stroke="black" paint-order="fill stroke markers" d=" M 192 554 L 192 550" stroke-miterlimit="10"/><path fill="none" stroke="black" paint-order="fill stroke markers" d=" M 221 554 L 221 550" stroke-miterlimit="10"/><path fill="none" stroke="black" paint-order="fill stroke markers" d=" M 250 554 L 250 550" stroke-miterlimit="10"/><path fill="none" stroke="black" paint-order="fill stroke markers" d=" M 280 554 L 280 550" stroke-miterlimit="10"/><path fill="none" stroke="black" paint-order="fill stroke markers" d=" M 309 554 L 309 550" stroke-miterlimit="10"/><path fill="none" stroke="black" paint-order="fill stroke markers" d=" M 338 554 L 338 550" stroke-miterlimit="10"/><path fill="none" stroke="black" paint-order="fill stroke markers" d=" M 367 554 L 367 550" stroke-miterlimit="10"/><path fill="none" stroke="black" paint-order="fill stroke markers" d=" M 396 554 L 396 550" stroke-miterlimit="10"/><path fill="none" stroke="black" paint-order="fill stroke markers" d=" M 425 554 L 425 550" stroke-miterlimit="10"/><path fill="none" stroke="black" paint-order="fill stroke markers" d=" M 455 554 L 455 550" stroke-miterlimit="10"/><path fill="none" stroke="black" paint-order="fill stroke markers" d=" M 484 554 L 484 550" stroke-miterlimit="10"/><path fill="none" stroke="black" paint-order="fill stroke markers" d=" M 513 554 L 513 550" stroke-miterlimit="10"/><path fill="none" stroke="black" paint-order="fill stroke markers" d=" M 542 554 L 542 550" stroke-miterlimit="10"/><path fill="none" stroke="black" paint-order="fill stroke markers" d=" M 571 554 L 571 550" stroke-miterlimit="10"/><path fill="none" stroke="black" paint-order="fill stroke markers" d=" M 600 554 L 600 550" stroke-miterlimit="10"/><path fill="none" stroke="black" paint-order="fill stroke markers" d=" M 629 554 L 629 550" stroke-miterlimit="10"/><path fill="none" stroke="black" paint-order="fill stroke markers" d=" M 659 554 L 659 550" stroke-miterlimit="10"/><path fill="none" stroke="black" paint-order="fill stroke markers" d=" M 688 554 L 688 550" stroke-miterlimit="10"/><path fill="none" stroke="black" paint-order="fill stroke markers" d=" M 717 554 L 717 550" stroke-miterlimit="10"/><path fill="none" stroke="black" paint-order="fill stroke markers" d=" M 746 554 L 746 550" stroke-miterlimit="10"/><path fill="none" stroke="black" paint-order="fill stroke markers" d=" M 775 554 L 775 550" stroke-miterlimit="10"/><path fill="none" stroke="black" paint-order="fill stroke markers" d=" M 804 554 L 804 550" stroke-miterlimit="10"/><path fill="none" stroke="black" paint-order="fill stroke markers" d=" M 834 554 L 834 550" stroke-miterlimit="10"/><path fill="none" stroke="black" paint-order="fill stroke markers" d=" M 863 554 L 863 550" stroke-miterlimit="10"/><text fill="#444444" stroke="none" font-family="helvetica" font-size="8pt" font-style="normal" font-weight="normal" text-decoration="normal" x="105" y="561" text-anchor="middle" dominant-baseline="hanging">0</text><text fill="#444444" stroke="none" font-family="helvetica" font-size="8pt" font-style="normal" font-weight="normal" text-decoration="normal" x="250" y="561" text-anchor="middle" dominant-baseline="hanging">20</text><text fill="#444444" stroke="none" font-family="helvetica" font-size="8pt" font-style="normal" font-weight="normal" text-decoration="normal" x="396" y="561" text-anchor="middle" dominant-baseline="hanging">40</text><text fill="#444444" stroke="none" font-family="helvetica" font-size="8pt" font-style="normal" font-weight="normal" text-decoration="normal" x="542" y="561" text-anchor="middle" dominant-baseline="hanging">60</text><text fill="#444444" stroke="none" font-family="helvetica" font-size="8pt" font-style="normal" font-weight="normal" text-decoration="normal" x="688" y="561" text-anchor="middle" dominant-baseline="hanging">80</text><text fill="#444444" stroke="none" font-family="helvetica" font-size="8pt" font-style="normal" font-weight="normal" text-decoration="normal" x="834" y="561" text-anchor="middle" dominant-baseline="hanging">100</text><text fill="#444444" stroke="none" font-family="helvetica" font-size="10pt" font-style="italic" font-weight="normal" text-decoration="normal" x="469.14703125" y="581.2700000000001" text-anchor="middle" dominant-baseline="hanging">bins</text></g><g><path fill="none" stroke="black" paint-order="fill stroke markers" d=" M 68 550 L 68 31" stroke-miterlimit="10"/><path fill="none" stroke="black" paint-order="fill stroke markers" d=" M 62 537 L 70 537" stroke-miterlimit="10"/><path fill="none" stroke="black" paint-order="fill stroke markers" d=" M 62 449 L 70 449" stroke-miterlimit="10"/><path fill="none" stroke="black" paint-order="fill stroke markers" d=" M 62 360 L 70 360" stroke-miterlimit="10"/><path fill="none" stroke="black" paint-order="fill stroke markers" d=" M 62 272 L 70 272" stroke-miterlimit="10"/><path fill="none" stroke="black" paint-order="fill stroke markers" d=" M 62 183 L 70 183" stroke-miterlimit="10"/><path fill="none" stroke="black" paint-order="fill stroke markers" d=" M 62 94 L 70 94" stroke-miterlimit="10"/><path fill="none" stroke="black" paint-order="fill stroke markers" d=" M 64 537 L 68 537" stroke-miterlimit="10"/><path fill="none" stroke="black" paint-order="fill stroke markers" d=" M 64 520 L 68 520" stroke-miterlimit="10"/><path fill="none" stroke="black" paint-order="fill stroke markers" d=" M 64 502 L 68 502" stroke-miterlimit="10"/><path fill="none" stroke="black" paint-order="fill stroke markers" d=" M 64 484 L 68 484" stroke-miterlimit="10"/><path fill="none" stroke="black" paint-order="fill stroke markers" d=" M 64 466 L 68 466" stroke-miterlimit="10"/><path fill="none" stroke="black" paint-order="fill stroke markers" d=" M 64 449 L 68 449" stroke-miterlimit="10"/><path fill="none" stroke="black" paint-order="fill stroke markers" d=" M 64 431 L 68 431" stroke-miterlimit="10"/><path fill="none" stroke="black" paint-order="fill stroke markers" d=" M 64 413 L 68 413" stroke-miterlimit="10"/><path fill="none" stroke="black" paint-order="fill stroke markers" d=" M 64 396 L 68 396" stroke-miterlimit="10"/><path fill="none" stroke="black" paint-order="fill stroke markers" d=" M 64 378 L 68 378" stroke-miterlimit="10"/><path fill="none" stroke="black" paint-order="fill stroke markers" d=" M 64 360 L 68 360" stroke-miterlimit="10"/><path fill="none" stroke="black" paint-order="fill stroke markers" d=" M 64 342 L 68 342" stroke-miterlimit="10"/><path fill="none" stroke="black" paint-order="fill stroke markers" d=" M 64 325 L 68 325" stroke-miterlimit="10"/><path fill="none" stroke="black" paint-order="fill stroke markers" d=" M 64 307 L 68 307" stroke-miterlimit="10"/><path fill="none" stroke="black" paint-order="fill stroke markers" d=" M 64 289 L 68 289" stroke-miterlimit="10"/><path fill="none" stroke="black" paint-order="fill stroke markers" d=" M 64 272 L 68 272" stroke-miterlimit="10"/><path fill="none" stroke="black" paint-order="fill stroke markers" d=" M 64 254 L 68 254" stroke-miterlimit="10"/><path fill="none" stroke="black" paint-order="fill stroke markers" d=" M 64 236 L 68 236" stroke-miterlimit="10"/><path fill="none" stroke="black" paint-order="fill stroke markers" d=" M 64 218 L 68 218" stroke-miterlimit="10"/><path fill="none" stroke="black" paint-order="fill stroke markers" d=" M 64 201 L 68 201" stroke-miterlimit="10"/><path fill="none" stroke="black" paint-order="fill stroke markers" d=" M 64 183 L 68 183" stroke-miterlimit="10"/><path fill="none" stroke="black" paint-order="fill stroke markers" d=" M 64 165 L 68 165" stroke-miterlimit="10"/><path fill="none" stroke="black" paint-order="fill stroke markers" d=" M 64 148 L 68 148" stroke-miterlimit="10"/><path fill="none" stroke="black" paint-order="fill stroke markers" d=" M 64 130 L 68 130" stroke-miterlimit="10"/><path fill="none" stroke="black" paint-order="fill stroke markers" d=" M 64 112 L 68 112" stroke-miterlimit="10"/><path fill="none" stroke="black" paint-order="fill stroke markers" d=" M 64 94 L 68 94" stroke-miterlimit="10"/><path fill="none" stroke="black" paint-order="fill stroke markers" d=" M 64 77 L 68 77" stroke-miterlimit="10"/><path fill="none" stroke="black" paint-order="fill stroke markers" d=" M 64 59 L 68 59" stroke-miterlimit="10"/><path fill="none" stroke="black" paint-order="fill stroke markers" d=" M 64 41 L 68 41" stroke-miterlimit="10"/><text fill="#444444" stroke="none" font-family="helvetica" font-size="8pt" font-style="normal" font-weight="normal" text-decoration="normal" x="57" y="537" text-anchor="end" dominant-baseline="central">0</text><text fill="#444444" stroke="none" font-family="helvetica" font-size="8pt" font-style="normal" font-weight="normal" text-decoration="normal" x="57" y="449" text-anchor="end" dominant-baseline="central">0.002</text><text fill="#444444" stroke="none" font-family="helvetica" font-size="8pt" font-style="normal" font-weight="normal" text-decoration="normal" x="57" y="360" text-anchor="end" dominant-baseline="central">0.004</text><text fill="#444444" stroke="none" font-family="helvetica" font-size="8pt" font-style="normal" font-weight="normal" text-decoration="normal" x="57" y="272" text-anchor="end" dominant-baseline="central">0.006</text><text fill="#444444" stroke="none" font-family="helvetica" font-size="8pt" font-style="normal" font-weight="normal" text-decoration="normal" x="57" y="183" text-anchor="end" dominant-baseline="central">0.008</text><text fill="#444444" stroke="none" font-family="helvetica" font-size="8pt" font-style="normal" font-weight="normal" text-decoration="normal" x="57" y="94" text-anchor="end" dominant-baseline="central">0.01</text><g transform="translate(17.72999999999999,290.63125) rotate(-90,0,0)"><text fill="#444444" stroke="none" font-family="helvetica" font-size="10pt" font-style="italic" font-weight="normal" text-decoration="normal" x="0" y="0" text-anchor="middle" dominant-baseline="alphabetic">Probability</text><g transform="rotate(90,0,0) translate(-17.72999999999999,-290.63125)"/></g></g><g fill="#444444"><path fill="" stroke="none" d=""/><g transform="translate(68.29406250000001,9)"><path fill="none" stroke="none"/><text fill="" stroke="none" font-family="helvetica" font-size="10pt" font-style="normal" font-weight="bold" text-decoration="normal" x="0" y="0" text-anchor="start" dominant-baseline="text-before-edge">Histogram (100 bins)</text></g></g></g></g></g></svg>